# xmcd
#
# Track frame offsets: 
#        150
#        17175
#        33974
#        53250
#        71699
#        86025
#        103950
#        116699
#        147750
#        170325
#        191175
#        243525
#
# Disc length: 3913 seconds
#
# Revision: 0
# Processed by: cddbd v1.5.2PL0 Copyright (c) Steve Scherf et al.
# Submitted via: ExactAudioCopy v0.95b4
#
DISCID=a50f470c
DTITLE=SUNSAD - Muted Purr
DYEAR=2008
DGENRE=Country
TTITLE0=Far Away
TTITLE1=King
TTITLE2=Thoughts Of A Disappointed Mind
TTITLE3=Doubts
TTITLE4=Autumn
TTITLE5=All That You Get
TTITLE6=Roly Poly
TTITLE7=Capital
TTITLE8=Island For Two
TTITLE9=Mighty Seas
TTITLE10=Rosery
TTITLE11=Far Away
EXTD=
EXTT0=
EXTT1=
EXTT2=
EXTT3=
EXTT4=
EXTT5=
EXTT6=
EXTT7=
EXTT8=
EXTT9=
EXTT10=
EXTT11=
PLAYORDER=
